/* XPM */
static char * wall_1_xpm[] = {
"64 64 409 2",
"  	c #585655",
". 	c #7A7A7A",
"+ 	c #6D6D6D",
"@ 	c #929292",
"# 	c #545353",
"$ 	c #909090",
"% 	c #999998",
"& 	c #9D9D9C",
"* 	c #969595",
"= 	c #959594",
"- 	c #919190",
"; 	c #868686",
"> 	c #797979",
", 	c #858584",
"' 	c #7F7F7F",
") 	c #818181",
"! 	c #7E7E7E",
"~ 	c #808080",
"{ 	c #8A8A8A",
"] 	c #8C8C8B",
"^ 	c #7D7D7D",
"/ 	c #919191",
"( 	c #737373",
"_ 	c #949494",
": 	c #949393",
"< 	c #949493",
"[ 	c #9D9D9D",
"} 	c #8B8B8B",
"| 	c #A2A2A2",
"1 	c #877E74",
"2 	c #504F4D",
"3 	c #838282",
"4 	c #6F6F6F",
"5 	c #807F7F",
"6 	c #898988",
"7 	c #818080",
"8 	c #838383",
"9 	c #888888",
"0 	c #9C9C9C",
"a 	c #ACACAC",
"b 	c #ABABAB",
"c 	c #AFAFAF",
"d 	c #8B8A8A",
"e 	c #8C8C8C",
"f 	c #787878",
"g 	c #777676",
"h 	c #999999",
"i 	c #A0A0A0",
"j 	c #969696",
"k 	c #989898",
"l 	c #7A7168",
"m 	c #2C2B2A",
"n 	c #484848",
"o 	c #7B7B7B",
"p 	c #707070",
"q 	c #7C7C7C",
"r 	c #9E9E9E",
"s 	c #939393",
"t 	c #8E8E8E",
"u 	c #666666",
"v 	c #6B6B6B",
"w 	c #5E5E5E",
"x 	c #6C6C6C",
"y 	c #848484",
"z 	c #828282",
"A 	c #898989",
"B 	c #9C9187",
"C 	c #2C2C2B",
"D 	c #757575",
"E 	c #767676",
"F 	c #878787",
"G 	c #747474",
"H 	c #979797",
"I 	c #A4A4A4",
"J 	c #858585",
"K 	c #776E65",
"L 	c #242423",
"M 	c #565656",
"N 	c #959595",
"O 	c #777777",
"P 	c #717171",
"Q 	c #7E766C",
"R 	c #2D2C2C",
"S 	c #656565",
"T 	c #646464",
"U 	c #8D8D8D",
"V 	c #A9A9A9",
"W 	c #9A9A9A",
"X 	c #7C746A",
"Y 	c #2E2D2C",
"Z 	c #8E847A",
"` 	c #2B2A29",
" .	c #6E6E6E",
"..	c #6A6A6A",
"+.	c #686868",
"@.	c #575757",
"#.	c #727272",
"$.	c #9F9F9F",
"%.	c #464646",
"&.	c #7B7269",
"*.	c #8F8F8F",
"=.	c #8F867B",
"-.	c #282827",
";.	c #4D4D4D",
">.	c #505050",
",.	c #776F66",
"'.	c #616161",
").	c #988E83",
"!.	c #81786E",
"~.	c #2A2928",
"{.	c #606060",
"].	c #9B9B9B",
"^.	c #82796F",
"/.	c #252524",
"(.	c #696969",
"_.	c #847B72",
":.	c #2A2A29",
"<.	c #626262",
"[.	c #525252",
"}.	c #80786E",
"|.	c #676767",
"1.	c #756C64",
"2.	c #201F1E",
"3.	c #857C72",
"4.	c #4E4E4E",
"5.	c #766D64",
"6.	c #222222",
"7.	c #7F766D",
"8.	c #AAAAAA",
"9.	c #867C73",
"0.	c #595959",
"a.	c #5D5D5D",
"b.	c #636363",
"c.	c #797068",
"d.	c #262625",
"e.	c #555555",
"f.	c #A1A1A1",
"g.	c #80776D",
"h.	c #2B2A2A",
"i.	c #252424",
"j.	c #545454",
"k.	c #242322",
"l.	c #222221",
"m.	c #4C4C4C",
"n.	c #5F5F5F",
"o.	c #7C736A",
"p.	c #1F1E1E",
"q.	c #424242",
"r.	c #746C63",
"s.	c #282828",
"t.	c #242424",
"u.	c #1D1D1D",
"v.	c #2E2E2E",
"w.	c #343434",
"x.	c #333333",
"y.	c #2C2C2C",
"z.	c #2F2F2F",
"A.	c #202020",
"B.	c #2D2D2D",
"C.	c #272727",
"D.	c #2A2A2A",
"E.	c #323232",
"F.	c #726961",
"G.	c #1B1B1A",
"H.	c #171717",
"I.	c #252525",
"J.	c #303030",
"K.	c #373737",
"L.	c #313131",
"M.	c #363636",
"N.	c #353535",
"O.	c #3F3F3F",
"P.	c #4D4842",
"Q.	c #4E4843",
"R.	c #46403B",
"S.	c #49443E",
"T.	c #4C4641",
"U.	c #514C46",
"V.	c #4A443F",
"W.	c #524C46",
"X.	c #504A45",
"Y.	c #4E4943",
"Z.	c #48433E",
"`.	c #4C4742",
" +	c #3F3A36",
".+	c #3B3732",
"++	c #47423C",
"@+	c #504B46",
"#+	c #544E48",
"$+	c #46413C",
"%+	c #4A4540",
"&+	c #4F4944",
"*+	c #49443F",
"=+	c #4E4842",
"-+	c #504A44",
";+	c #504B44",
">+	c #58514B",
",+	c #746B62",
"'+	c #4D4741",
")+	c #47423D",
"!+	c #4B4640",
"~+	c #44403A",
"{+	c #524D47",
"]+	c #4F4A44",
"^+	c #3E3A35",
"/+	c #48443E",
"(+	c #423E39",
"_+	c #59534D",
":+	c #4C4741",
"<+	c #46423C",
"[+	c #5B544E",
"}+	c #5F5952",
"|+	c #605852",
"1+	c #8E857B",
"2+	c #6A6A69",
"3+	c #9A9999",
"4+	c #424240",
"5+	c #9C9C9B",
"6+	c #929191",
"7+	c #767575",
"8+	c #7C7C7B",
"9+	c #818180",
"0+	c #787777",
"a+	c #9E9E9D",
"b+	c #989897",
"c+	c #848383",
"d+	c #6C6C6B",
"e+	c #82786F",
"f+	c #4F4E4C",
"g+	c #858484",
"h+	c #A5A5A5",
"i+	c #8D8D8C",
"j+	c #A8A8A8",
"k+	c #888787",
"l+	c #7D746B",
"m+	c #5A5A5A",
"n+	c #A3A3A3",
"o+	c #232322",
"p+	c #A6A6A6",
"q+	c #8A8076",
"r+	c #272726",
"s+	c #3A3A3A",
"t+	c #867C72",
"u+	c #232222",
"v+	c #292828",
"w+	c #222121",
"x+	c #847A71",
"y+	c #585858",
"z+	c #6D655C",
"A+	c #262524",
"B+	c #2D2C2B",
"C+	c #7F766C",
"D+	c #5B5B5B",
"E+	c #786F66",
"F+	c #766E65",
"G+	c #B8B8B8",
"H+	c #2F2E2E",
"I+	c #A7A7A7",
"J+	c #20201F",
"K+	c #797167",
"L+	c #272625",
"M+	c #736B62",
"N+	c #404040",
"O+	c #7A7268",
"P+	c #5C5C5C",
"Q+	c #444444",
"R+	c #706860",
"S+	c #4B4B4B",
"T+	c #8A8178",
"U+	c #252423",
"V+	c #2B2B2B",
"W+	c #6E665E",
"X+	c #1F1F1F",
"Y+	c #383838",
"Z+	c #262626",
"`+	c #8B8278",
" @	c #433E3A",
".@	c #4C4640",
"+@	c #443F3A",
"@@	c #45403A",
"#@	c #514B45",
"$@	c #49433E",
"%@	c #48423D",
"&@	c #554E49",
"*@	c #59534C",
"=@	c #6F675E",
"-@	c #565049",
";@	c #4A4440",
">@	c #45403B",
",@	c #403C37",
"'@	c #3F3B36",
")@	c #5A544E",
"!@	c #56504A",
"~@	c #46413B",
"{@	c #5C564F",
"]@	c #645D56",
"^@	c #8C8279",
"/@	c #645E56",
"(@	c #57514B",
"_@	c #544F49",
":@	c #534E48",
"<@	c #423D38",
"[@	c #565453",
"}@	c #797878",
"|@	c #979796",
"1@	c #959494",
"2@	c #AEAEAE",
"3@	c #929291",
"4@	c #9B9B9A",
"5@	c #9D9C9C",
"6@	c #81776E",
"7@	c #595856",
"8@	c #60605F",
"9@	c #878686",
"0@	c #898888",
"a@	c #939292",
"b@	c #7E756C",
"c@	c #2C2B2B",
"d@	c #B0B0B0",
"e@	c #80776E",
"f@	c #726A61",
"g@	c #7E756B",
"h@	c #282826",
"i@	c #262624",
"j@	c #7A7269",
"k@	c #454545",
"l@	c #80766D",
"m@	c #272626",
"n@	c #282726",
"o@	c #867D73",
"p@	c #766E64",
"q@	c #797067",
"r@	c #1B1A1A",
"s@	c #726960",
"t@	c #4A4A4A",
"u@	c #292827",
"v@	c #535353",
"w@	c #1E1E1D",
"x@	c #1B1B1B",
"y@	c #292929",
"z@	c #716961",
"A@	c #1C1C1C",
"B@	c #474747",
"C@	c #6D665D",
"D@	c #4D4742",
"E@	c #58524C",
"F@	c #534D48",
"G@	c #4B4540",
"H@	c #443E39",
"I@	c #524C47",
"J@	c #4F4943",
"K@	c #534D47",
"L@	c #504B45",
"M@	c #4A453F",
"N@	c #3D3934",
"O@	c #787067",
"P@	c #828181",
"Q@	c #626261",
"R@	c #80807F",
"S@	c #AAAAA9",
"T@	c #837A70",
"U@	c #4C4A49",
"V@	c #8B8B8A",
"W@	c #8E8E8D",
"X@	c #868585",
"Y@	c #9C9B9B",
"Z@	c #939392",
"`@	c #7C7369",
" #	c #5D5C5A",
".#	c #908F8F",
"+#	c #A3A2A2",
"@#	c #8A8A89",
"##	c #2E2E2D",
"$#	c #3E3E3E",
"%#	c #414141",
"&#	c #232221",
"*#	c #9E9489",
"=#	c #2F2E2D",
"-#	c #8C8278",
";#	c #746A62",
">#	c #1C1C1B",
",#	c #4F4F4F",
"'#	c #857B72",
")#	c #837970",
"!#	c #3C3C3C",
"~#	c #8F847B",
"{#	c #515151",
"]#	c #8D847A",
"^#	c #91877E",
"/#	c #2C2A2A",
"(#	c #434343",
"_#	c #726A62",
":#	c #232323",
"<#	c #81786F",
"[#	c #212020",
"}#	c #3B3632",
"|#	c #433E39",
"1#	c #48433D",
"2#	c #554F49",
"3#	c #4B4641",
"4#	c #554F4A",
"5#	c #58524B",
"6#	c #887E75",
"7#	c #615A54",
"8#	c #5A544D",
"9#	c #5C554F",
"0#	c #56504B",
"a#	c #433E38",
"b#	c #393430",
"  . + @ # $ % & * = - ; > , ' ; ) ! ~ { ] ^ / ( _ : < [ @ } | 1 2 ; 3 4 5 ~ @ _ 6 7 8 ~ 9 0 a b c d e f & g @ $ $ h $ | i j k l ",
"m n o ~ p q $ $ r ; s e t e f u v ~ w 9 9 x @ / y ~ q _ z ~ A B C > q D ! E z D F 8 e { G z H ' I ; r $ ! J @ / $ _ 8 @ 9 t ~ K ",
"L M 9 f f ^ 9 s N N N / O { q z w P x 9 } ) $ p o ) ~ s e f ! Q R S { p T D ~ q ' U _ ; t @ V } $ W _ } e y t k $ U q 8 ^ ! @ X ",
"Y w q ; A { 0 i 0 ; N @ U @ . > y J F z . y h ! ) / G H / q { Z `  ...+.z @.U J @ U ' #.j A t A $.i h J 8 %.9 / ! t { $ @ $ F &.",
"m p _ f $ p } $.} *.y e } E { 9 ~ ; / F f ; ; 9 $ i e y U s *.=.-.;.@ } ; [ e { { k H $ H [ t 0 *.W @ ; ) >.e } o U f z } h $ ,.",
"R + 9 8 s ~ ^ } y 8 f f H #.v E + ; U e ! z z '.. > h ) H e _ ).-...( f z 9 r 9 z W @ t A > s @ h } z z J . q $ U H ~ ; ; *.[ !.",
"~.{.q q y 9 t 8 ; ' ' p e y h {.P A N z ^ @ ) ..p ! 9 G A *.].^./.(.y i .. .J o ) z 9 $ #.; > $ ; s t q T *.#.e e t k { A / 0 _.",
":.#.f <. .; F e ! ^ e D 9 . ; S { F 9 t y q [.^ y 8 U J ( J 0 }.:.|.<.9 ..8 @ *.; e . ; U 9 ~ #.~ @ y e O } D ~ ) $ h @ s } 9 1.",
"2.{.z G ~ 9 @ F k { t t { F i f ^  .9 } @ ! q G G ; { { 8 F U 3.~.4.{ { [ w _ A W A / 8 e / _ E +.A ~ *.! x y { F 9 } t _ A H 5.",
"6.<.. q @ ~ 9 8 ) _ t k @ ) U . z ..A E e 9 q q ~ y s @ q 9 A 7.C '.q / e E } ; _ k F q  .s 8.j W _ y q N t $ N j _ } ~ y U k 9.",
"/.0.z ~ } $ z { ! f _ ~ ].j J z a.b.F D U { A z 9 ! ~ +.f ! z c.d.x e.E t 9 j } $ z _ F ~ u [ ' ~ A ! <.k f.} s ~ k t 9 ^ #.G g.",
"h.+ v z ; N U { 8 A N ; ..t _ J ; +.b.^ y } q . x G 8 ' D E ].Q i.j.. p 9 e _ y { U { _ c y N H U G ~ ) { W W ) z { z y ~ O > 7.",
"m @.#.o ) F z J ! F z ) (.].y } } x #..  .) { y 8 . q ! z ( 4 X k.>.{.x o f ! O ! z @ j / { $ k _ y ! + ~ G F 0 ; y O +.#.^ 0 g.",
"l.m.m.<.#.( O p ( '.G x +.f  .<.4 n. .( 8 >  .) f ^ G E q x t o.p.q.#.0.|...> ) . D p v ) p 4 {.x ; { G ! !  .f ; z x ! . n.E r.",
"L s.t.u.s.v.w.x.y.s.y.z.A.B.B.v.C.s.D.v.y.z.z.B.y.z.v.z.E.y.n F.G.H.6.I.t.E.x.J.J.D.E.K.J.L.y.M.u.J.v.E.L.N.w.x.x.v.D.y.v.L.O.Q ",
"P.Q.R.S.T.U.V.W.X.Y.Z.`.V.Y.T. +.+R.++@+#+Z.$+%+W.&+*+=+-+;+>+,+'+)+$+++!+~+{+++S.Z.&+)+]+Y.&+^+^+/+$+(+*+_+:+!+++<+V.#+[+}+|+1+",
"; 2+{ ! z _ j j } 3+h i U t #.5.4+8 ! e y 5+6+F y } |.7+V e 8+_ 9+n.F 9 0+; a+b+G 9 . z c+d+z e+f+E P g+@ * h+0 3+].N 0+i+j+k+{ ",
"O { F  .o z 9 ~ ; q / ~ s ^ / l+k.m+q ; *.*.^ @ q { k ! n+e ~ 9 / G ; ' ' { ~ 9 s +.o z @ P '.g.o+n k $ 8 t | [ A ) $ . +.$ j+k ",
"z ..z x { x ~ ! J y ; h 9 z p+q+r+s+u #.8 e ~ f z ; $ a.~ 8 f f F ' +.y } *.e E j A f z W $ { t+u+>.F p / 0 ! e ; A H + } S @ *.",
"$ #.q ( j A z F r i k W q o j 1 v+q.v f e @ / k y ^ t { D z { |.#.y x . f A k U *.[ ; @ n+p ].5.o+{.z $ U N { 9 U _ o z F > q J ",
"A p t k $.D ~ _ { { k } 9 p s 3.m 4.. 9 ! z z F t A ; ! F _ y 8 w b.4 ' ( 9 z J ) } ^ _ H p J &.w+j.G v f 9 } W ; U t f W H } 9 ",
"0 +.t z y j s q t k ~ ! *.$ ^ x+r+[.D 8 @ N ; t #.U @ } S o _ D P ( {.. + G ) > E #.j } y+f +.z+A+O.f q ! 9 @ { . J @ z e ; @ ~ ",
"#.D E [ G _ ' A ( ; t y { f j+q+B+u A [ f.r _ W U z q $ ! J _ t ; t 9 . ! ..D . { 8 A z ~ t *.C+A+D+> A D @ ! k s i W } ~ { x ) ",
"z h P r ^ > +. ./ ! { @ | W a E+l.4 F A n+h $ F z z z ' ! ' 8 ~ j.t $ $.D ~ . ' ' $ D / { 8 U F+r+>.+ q z ! D ^ ! _ A $ t t z [ ",
"p ! y k ; G $ (.8 ( ( s W F G+r.H+>.P } f.f.I+0 @ $ y W E ! o y U O { / J y F ' ! e e @ . y a.&.J+j.! f / #.! _ { ~ H j q { F J ",
"k 4 ! ].(.' r @ E i 9 ; 9 u e K+:.>.f $ k I r I r y ! ~ h . f ' q f . y e { 9 z ; 9 ~ z ^ N z _.L+w p ; { W q 8 A ( H t 8  .$ ; ",
"z G . } F . A J *.9 t e *.8 F M+-.e.J f _ N $ 0 [ / x t y O y ! b.D y ^ t ! 8 F D e U ! h t { Q d.N+( f . } @ t P 8 z ! > o q ! ",
"e 9 {.t j ! e ! s y $ ! ~ f U O+~.j.^ f > i ~ U *.N s [ ! ( #.P { q { J { F z O G ( ~ J { o U ,.~.P+#.U ) { F ) D D 9 ; *.{ > a.",
"q @ o e.v t U o y ; y ' 9 F 9 l+h.n +.p ^ . { ; ; ~ q *.. J z w >.o q ; o f o ( p  .! . f o ~ 1.d.Q+o P q y } ^ x e { q G A *.z ",
"o . 9 u j.S E G ^ ; e ) }  .e R+p.S+'.y+y+ .E (.4 O . G x w v x <.M D D . f > + ( G (.4 . G y T+U+y+v ..p o +.#.#.~ z G T #.E f ",
"w.L.w.E.E.V+E.w.E.x.J.y.w.D.@.W+k.B.M.X+s.y.M.w.w.E.v.J.Y+J.L.E.J.s.V+E.L.z.B.y.Z+Z+E.L.J.y.Y+`+J+y.J.B.z.L.E.w.x.J.v.L.z.s.A.y.",
" @:+=+:+.@U.+@@@Y.:+#@$@%@&@*@=@-@:+;@W.R.++]+S.R.Z.Z.S.%+$+>@,@'@(+%+=+++#+_+)@!@_+W.~@Q.{@]@^@/@(@W.R.%+V.-+)@_@{+:@!+V.=+S.<@",
"[@}@y ; +.i |@N 1@f.i $.0 A | c 2@> E T t x 3@h 4@5@$ $ $ $ *.6@7@S 8@9@H _ < 9 ! q z 9 3@0@I ' O |@) #.N g+{ U { } 9 a@k U | b@",
"c@u { ^ 8 ) j } ' ) H e _ y H 2@d@0 U z ; k k _ G @ $.. { 9 9 l R <.(.( y . o z y q  .b.D 8 n.P v 9 } A / 9 #.y ; ' @ / A ^ j e+",
"C |.q o ; z ; ^ f ~ z / e ! ' / 9 } r U ; *.; J ~ G z t ( f N e@m <.u + y 9 F J . f $ f E D O w  .~ ; p P ~ y 4 ^ . { $ J ! k l ",
"d.p  .T } J ; ! f e y _ ~ z 9 A M U (.H F $ ~ y { *.y 8 y { j E+C w G x ) J A 9 > p D y  .G ~ ^ ^ E ' ; ) A $ e . > > e U 8 9 f@",
"v+[. .x f (.$ t y G o e ; ; y 8 ^ e y ^ *.$.k ; *./ p ~ ) P h g@h@{.. J ) G z 8 ' *.f $ v '.E >.G O #. .F ; $ U F q { 8 q . x c.",
"i@4.v q z 8 8 H ; ; +.' F z 9 { ].y  .9 / $.s r j @ U <.E 9 ! x+h.{.8 ^ ~ ^ z y s U $ e q ' O . D z ( > ~ y 9 { ' F ! > 9 . > 5.",
"k.b.<.|.+ $ E > y 9 z u y / . 4 ; { '.^ A *.i H _ *.j+4 (.'.. 7.-.+.. e { 8 ) A z ! y {.8 D p #.p U +.0.. y ! } > 8 E ; ) F _ j@",
"d.S x O y+G ! t t k H } > { } S  .z q t H k @ h h t k q . ( / 1 :.x f ~ U ' y ~ E ; { e ) k@P ^ q z ; q w ~ e y e ! 8 A E ) { l@",
"Z+v 4 ) $ e ) e ~ 8 y k ~ ~  .) y O '.U $ 9 h I $ e $.#.v x I O+m@ .J q y G q . ) p q _ D 8 u f 9 ..> z ; ..j @ y ~ O t ' ~ J E+",
"k.P+9 4 8 > e P _ y @ ~ J ].z t ; ( z { H J { e $ ; @ ) z ( } l n@u > J e 9 J z 9 O T e j.f v u @ ! [.A {.G e _ e y { z o ^ t o@",
"L n.{.! y z ~ e ! y ( ! e *.~ A J 9 D t U *.t 8 $ t @ } _ b.. p@h.{.y *.q y s @ 9 N e { ~ 8 A 9 q z ! y O ' 9 ; z ; G ~ J A H q@",
"C n <.y U e 9 _ / t t F ) 9 n.k . q *.{ k j q 9 e s { ~ ^ ; / o@r@M ! ! #.z G y s @ { { e } o [ ~ y 8 v e f ) s A z #.x 8 p F Q ",
"h.y+'.#.<.t s *.$ 9 8 n.f U b.z o t U { e t J ' H e y N 0 { ; 1+L k@+.p f { ~ e J t F { ' ^ { ^ F G . x o 4 O ^ o q E ..> . @ s@",
"C S+y+>.t@p 4 . ! x ' O ^ f f 8 q 4 f y q ..f + <.f O P z 4 ' 9.u@v@'.! f ! ! ' b.^ ( S O |.(. . .! #.+ G +.v #.#.D x  .4 4 G R+",
"w@Z+s.x@y.s.J.L.B.x.L.E.y.s+v.t.z.z.C.v.N.x.E.J.L.L.x.y@J.V+N+z@L+C.A@x.M.w.E.N.z.J.J.y.x.x.J.y.D.J.J.z.v.C.v.z.y.B.v.D.y@J.B@C@",
"W.Z.R.++D@+@@@S.#+S.Y.-+E@Y.F@;@)+>@>@P.!+++Z.!+G@.@T.H@<+S.I@f@J@*@!@#+!+K@_@)@)@#+L@>@S.M@>@N@^+`.=+-+=+M@Y.T.L@:+-+P.#@++.@O@",
"P@3@t Q@u o q A b+R@y j F *.S@T@U@M #.V@@ % 4@W ].h k+} W@W O ; $.X@! Y@s Z@X@k j { { e 0 k 0@`@ #y z .#y 6 _ e 1@5@+#r t 9 @#U ",
"8 _ E <.E p ! E *.t f _ P f } 5.~.P+B@^ +./ [ e ) } e #.A ! G #.F n.9 N / @ { j @ ; N @ _ h 8.&.##..e ! P @ k J } h *.k s e ' 9 ",
"..*.t z $#' 4 J ; t ' { E ; ..3.:.T <.( z ; U k H { J ~ T . k @ ~ w y A k J ; *.j t ; $ q t j &.R P k 0 |...p 9 A N A y *.8 { H ",
"8 9 P q %#J O o f } p 9 8 v } e@&#+.0.T $ + $ _ _ n+e 9 *.4 } 0 { x  .e k H J 8 j J N ) *.8 $.*#=#' F I } ~ %.^ ; _ @ *.{ { E ^ ",
"z *.. .  .. { y o #.4 s @ ~ ' r.u+{.f (.n.~ y 8 t 8 k J A ! 4 e > z ^ t _ / A ~ G e e j k $ $.-#:.v ) {.{ f u T . . F F *.z 8 q ",
"8 { ^ f ..j.; y 9 ^ ! } q 9 U `+d.j. .t . ^ N ; y } f 9 { j O T e f M p _ $ j 9 $ @ y ' } s ' ;#U+S F p ' y u n.( { ) k $ t D A ",
"G z z E x O o *.z ~ z y O ! ) l+>#,#E x b.#.z $ j k h J @ U ~ 0 h ' N _ p z $.[ W { N { ! ; J M+n@0.$ ~ q A 4 E ~ e _ U s p+q . ",
"t @ z U y u ( 9 e f 8 ) y t q 3.p.+.G #.^ ^ ~ 8 f O U } ..t ; E k 9 t h +.E ].e z k y z y { E e@k.T e t ! p } { } q { j P @ j N ",
"e 0 { 9 ) G 9 ! 9 z ~ y 9 q t '#C w p y +.w O E U { ..8 U t e t $ o y e p { s k r e $ 9 { A _ )#m@!#. y F m+^ $ F 9 *.@ k N r ' ",
"x _ / t s F { A *.; / $ ~ ~ z 3.m j.y M } ( ; _ / $ t q { x F 9 r O ) p . } A { j H r _ e E | ~#~.y+y h f +.P j t / s $ / j ].k ",
"i E z  .S 9 { . e @ e { G z N }.:.p z  .( ^ F z U t y @ A z z p k $.|.^ (.+.y s E U p+j $ P / 9.~.E f ' / {#$ @ { { e j y *.e r ",
"D } y . q { p ( y ~ 9 ' F '.h -#:.a.! O D <.t ; J J J ~ 8 f ~ p t s z E D <.U ; . t ].@ I 8 r X v+|.y z N > ~ E 9 ; t } t z P ' ",
"( E f ! #.. ; J J ~ z } U q e o.` P+G x J G #.~ U ; t E $ ) G f t $ z O 0.G 8 f J > F O ' 9 r ]#h.t@b.~ z _ T q ~ } ) U y z p 8 ",
"G T + y+! ! ^ O E ( ! #.> x q &.s.0.G >.u '.w + v P p > G  .#.a.n.m+^ P+P+ .p S o > y y ! { 8 ^#/#e.M  .#.x ~ . #.E z y O G 4 4 ",
"B.Z+v.B.C.v.x.B.y@y.v.v.v.v.(#_#L z.x.E.D.s.s.:#J.y.x.w.E.v.x.y.L.v.D.V+X+y@s.B.z.D.E.v.E.K.t@<#[#B.B.y.y@y@y.z.w.v.L.J.E.J.Z+v.",
"}#!+<@R.|#S.@@.@:@D@$+@@+@Y.E@l U.++++1#L@&+&+R.>@G@W.+@Z.2#{+Z.3#Z.:+W.E@!@!@4#:@!+>@5#E@}+E@6#7#8#@@F@E@9#(@0#S.M@-+Z.<+a#+@b#"};
